User Type,Username,Date,Text
[T],Tyr3ll,2012-05-27T21:23Z,"Reconverted again to mkv.h264-audio copy profil
MPEG-4 AVC H.264
Final screen resolution : updated/adjusted/fixed to : 1920 x 1080 real
23,97 fps
Planar 4:2:0 YUV
Software used : N/A
Cuda GPU acceleration decoding/encoding both enabled.
Cuda version 4.20 revision 2.0
driver : NVidia 301.42 WHQL
GPU : NVidia 480 GTX
480 core Shaders-384 bits-1536 Mo Gddr5
CPU : AMD Phenom Quad core 965 BE @ 3,4 Ghz
All original subtitles and Audio spoken languages will be included as described a little bit up more so.Nothing has been deleted anyway.
Final size : 11,3 Gb (Idx/Sub included)
Btw,You can still try to burn it on a BD25 with another BDrip of me with an approximative similar size also.
just by Nero or another soft indeed.
__________________________

Final thoughts :
Better BrRip version than the previous i already seeded also here few months ago 
Better IQ with less pixelation as well.(Not sure but may be even without any pixelation at all...)
few grain sometimes but it won't really compromise IQ at all.
Appears as a very very good copy anyway for sure.
Played,tested and checked on many different players with really good IQ.
However,beware : May laggy sometimes if you stop brutaly to watch it and playing back again (audio/video synchro playback's problem ?)
Anyway,don't worry,you won't regret it at all,you can trust me !
This way i wish you have/get a good film and have fun
Please,seed with me asap,as long as you can so.
Ty for your understanding
Btw,don't forget to regulary check most of your trackers list for update some of them if necessary when they could all especialy go on N/A status
(udp trackers ...)
Cheers and cu around 
Btw :
You are not allowed to sell,resell or rent this copy or use it for online streaming by any profit or money so.
If you like this movie,buy it,please !
Ty"
[T],Tyr3ll,2012-05-27T21:33Z,"first sub folder of this torrent file is named like this :
Blade_Runner.Final_Cut.SE.(Ridley.Scott).(2007).BrRip.1080pi@(Mkv.h264[)(]AC-3.TrHD 5.1;AC-3 5.1)-ES-DE-FR-IT-US+MultiSub

few screenshots can be seen right here :
http://tyr3ll.minus.com/tyr3ll/uploads"
[T],Tyr3ll,2012-06-28T02:31Z,"true details :

General :

Complete name                  : BLADERUNNER_FINAL_EU.Title1.mkv
Format                         : Matroska
Format version                 : Version 2
File size                      : 11.3 GiB
Duration                       : 1h 57mn
Overall bit rate mode          : Variable
Overall bit rate               : 13.8 Mbps
Movie name                     : BLADERUNNER_FINAL_EU.Title1.BlurayRip
Encoded date                   : UTC 2012-05-27 08:02:14
Writing application            : DVDFab
Writing library                : libebml v0.7.8 + libmatroska v0.8.1

Video :
ID                             : 1
Format                         : AVC
Format/Info                    : Advanced Video Codec
Format profile                 : High@L5.1
Format settings, CABAC         : Yes
Format settings, ReFrames      : 2 frames
Codec ID                       : V_MPEG4/ISO/AVC
Duration                       : 1h 57mn
Bit rate mode                  : Variable
Maximum bit rate               : 11.1 Mbps
Width                          : 1 920 pixels
Height                         : 1 080 pixels
Display aspect ratio           : 16:9
Frame rate                     : 23.976 fps
Color space                    : YUV
Chroma subsampling             : 4:2:0
Bit depth                      : 8 bits
Scan type                      : Progressive
Default                        : Yes
Forced                         : No

Audio #1
ID                             : 2
Format                         : TrueHD-(32 bits)
Codec ID                       : A_TRUEHD
Duration                       : 1h 57mn
Bit rate mode                  : Variable (VBR)
Maximum bit rate               : 5 247 Kbps 
Channel(s)                     : 6 channels
Channel positions              : Front: L C R, Side: L R, LFE
Sampling rate                  : 48.0 KHz
Compression mode               : Lossless
Language                       : English
Default                        : Yes
Forced                         : No

Audio #2
ID                             : 3
Format                         : AC-3-(16 bits)
Format/Info                    : Audio Coding 3
Mode extension                 : CM (complete main)
Format settings, Endianness    : Big
Codec ID                       : A_AC3
Duration                       : 1h 57mn
Bit rate mode                  : Constant (CBR)
Bit rate                       : 640 Kbps
Channel(s)                     : 6 channels
Channel positions              : Front: L C R, Side: L R, LFE
Sampling rate                  : 48.0 KHz
Bit depth                      : 16 bits
Compression mode               : Lossy
Stream size                    : 538 MiB (5%)
Language                       : French
Default                        : No
Forced                         : No

Audio #3
ID                             : 4
Format                         : AC-3-(16 bits)
Format/Info                    : Audio Coding 3
Mode extension                 : CM (complete main)
Format settings, Endianness    : Big
Codec ID                       : A_AC3
Duration                       : 1h 57mn
Bit rate mode                  : Constant (CBR)
Bit rate                       : 640 Kbps
Channel(s)                     : 6 channels
Channel positions              : Front: L C R, Side: L R, LFE
Sampling rate                  : 48.0 KHz
Bit depth                      : 16 bits
Compression mode               : Lossy
Stream size                    : 538 MiB (5%)
Language                       : German
Default                        : No
Forced                         : No

Audio #4
ID                             : 5
Format                         : AC-3-(16 bits)
Format/Info                    : Audio Coding 3
Mode extension                 : CM (complete main)
Format settings, Endianness    : Big
Codec ID                       : A_AC3
Duration                       : 1h 57mn
Bit rate mode                  : Constant (CBR)
Bit rate                       : 640 Kbps
Channel(s)                     : 6 channels
Channel positions              : Front: L C R, Side: L R, LFE
Sampling rate       "
